<?xml version="1.0" standalone="no"?>
<svg xmlns="http://www.w3.org/2000/svg" viewBox="0 0 141.888 29" width="141.888" height="29"><g fill="#000000" color="#000000" transform="translate(0, 0) scale(0.2660551)"><svg width="109.0" height="109.0" x="0.0" y="0.0" viewBox="0 0 109 109"><path fill="currentColor" d="M14.657,12.059c0,1.013-0.821,1.833-1.833,1.833s-1.833-0.821-1.833-1.833s0.821-1.833,1.833-1.833  S14.657,11.046,14.657,12.059z M7.99,10.225c-1.013,0-1.833,0.821-1.833,1.833s0.821,1.833,1.833,1.833s1.833-0.821,1.833-1.833  S9.002,10.225,7.99,10.225z M17.657,10.225c-1.013,0-1.833,0.821-1.833,1.833s0.821,1.833,1.833,1.833s1.833-0.821,1.833-1.833  S18.669,10.225,17.657,10.225z M97.406,10.559H28.99c-0.829,0-1.5,0.671-1.5,1.5s0.671,1.5,1.5,1.5h68.416c0.83,0,1.5-0.671,1.5-1.5  S98.236,10.559,97.406,10.559z M99,53.184H67.322v-28.5H99V53.184z M96,27.683H70.322v22.5H96V27.683z M109,10.517v68.667  c0,2.761-2.238,5-5,5h-5H67.322h-2.014H50.322v-3h11.986v-53.5H13v2.934c-1.226,0.247-2.277,0.951-3,1.916v-7.849h55.309v56.5h2.014  v-26.75H99v26.75h5c1.104,0,2-0.897,2-2V18.517H3v60.667c0,1.103,0.897,2,2,2h2.99v3H5c-2.761,0-5-2.239-5-5V10.517  c0-2.761,2.239-5,5-5h99C106.762,5.517,109,7.755,109,10.517z M96,57.434H70.322v23.75H96V57.434z M106,10.517c0-1.103-0.896-2-2-2  H5c-1.103,0-2,0.897-2,2v5h103V10.517z M48.072,37.171v61.313c0,2.761-2.238,5-5,5H15.156c-2.761,0-5-2.239-5-5V37.171  c0-2.761,2.239-5,5-5h27.916C45.834,32.171,48.072,34.41,48.072,37.171z M13.156,37.171v3.596h31.916v-3.596c0-1.103-0.896-2-2-2  H15.156C14.053,35.171,13.156,36.068,13.156,37.171z M39.322,90.017V75.93H18.823v14.086H39.322z M42.322,72.93v17.461h2.75V43.767  H13.156v46.625h2.667V72.93H42.322z M45.072,98.484v-5.092H13.156v5.092c0,1.103,0.897,2,2,2h27.916  C44.176,100.484,45.072,99.587,45.072,98.484z M29.115,94.808c-1.289,0-2.334,1.045-2.334,2.333s1.045,2.333,2.334,2.333  c1.288,0,2.332-1.045,2.332-2.333S30.403,94.808,29.115,94.808z M27.281,38.767h3.666c0.277,0,0.5-0.224,0.5-0.5s-0.223-0.5-0.5-0.5  h-3.666c-0.276,0-0.5,0.224-0.5,0.5S27.005,38.767,27.281,38.767z M42.322,71.017H15.823v-22.75h26.499V71.017z M39.322,51.267  H18.823v16.75h20.499V51.267z"></path></svg></g><line x1="41" y1="1" x2="41" y2="28" stroke="#006bff" stroke-linecap="round"></line><path fill="#006bff" fill-rule="nonzero" d="M4.56 5.33L7.85 5.33L10.97 5.14L10.97 18.31Q10.97 20.59 9.68 21.80Q8.40 23.02 5.88 23.02L5.88 23.02Q3.94 23.02 2.47 22.25L2.47 22.25Q1.70 21.86 1.25 21.10Q0.79 20.33 0.79 19.27L0.79 19.27L3.70 19.13Q3.70 19.80 4.18 20.09Q4.66 20.38 5.82 20.38Q6.98 20.38 7.40 19.80Q7.82 19.22 7.82 18.14L7.82 18.14L7.94 16.08L4.58 17.88Q1.82 17.88 0.86 16.01L0.86 16.01Q0 14.35 0 11.95L0 11.95Q0 9.10 0.43 7.92L0.43 7.92Q0.89 6.62 1.73 6.05L1.73 6.05Q2.81 5.33 4.56 5.33L4.56 5.33ZM5.47 14.59L7.85 13.37L7.85 8.14L5.47 8.14Q4.13 8.14 3.62 9.05Q3.12 9.96 3.12 11.59Q3.12 13.22 3.64 13.91Q4.15 14.59 5.47 14.59L5.47 14.59ZM16.03 0Q17.16 0 17.50 0.35Q17.83 0.70 17.83 1.81Q17.83 2.93 17.48 3.28Q17.14 3.62 16.02 3.62Q14.90 3.62 14.56 3.26Q14.21 2.90 14.21 1.80Q14.21 0.70 14.56 0.35Q14.90 0 16.03 0ZM17.57 5.74L17.57 18.94L14.45 18.94L14.45 5.74L17.57 5.74ZM30.46 15.14L30.46 15.14L30.46 15.50Q30.31 17.30 28.93 18.22Q27.55 19.13 25.49 19.13L25.49 19.13Q22.44 19.13 21.22 18.02L21.22 18.02Q20.09 17.02 20.09 15.05L20.09 15.05L20.09 14.76L22.92 14.76Q22.92 15.86 23.50 16.27Q24.07 16.68 25.49 16.68L25.49 16.68Q27.41 16.68 27.41 15.29L27.41 15.29Q27.41 14.14 26.74 13.75L26.74 13.75Q26.42 13.56 25.94 13.46L25.94 13.46L23.52 13.06Q20.35 12.55 20.35 9.10L20.35 9.10Q20.35 7.18 21.76 6.11Q23.16 5.04 25.32 5.04L25.32 5.04Q30.24 5.04 30.24 9.29L30.24 9.29L30.24 9.60L27.53 9.60Q27.48 8.47 26.93 8.06Q26.38 7.66 25.38 7.66Q24.38 7.66 23.88 8.05Q23.38 8.45 23.38 8.93L23.38 8.93Q23.38 10.30 24.48 10.49L24.48 10.49L27.38 11.02Q30.46 11.59 30.46 15.14ZM42.50 5.14L42.50 18.94L40.42 18.94L39.46 17.28L36.12 19.08Q33.34 19.08 32.38 17.06L32.38 17.06Q31.90 16.08 31.72 14.94Q31.54 13.80 31.54 12.56Q31.54 11.33 31.56 10.74Q31.58 10.15 31.68 9.37Q31.78 8.59 31.96 8.06Q32.14 7.54 32.47 6.97Q32.81 6.41 33.29 6.07L33.29 6.07Q34.37 5.33 36.10 5.33L36.10 5.33L39.38 5.33L42.50 5.14ZM37.01 15.79L39.38 14.57L39.38 8.14L37.01 8.14Q35.69 8.14 35.17 9.14Q34.66 10.15 34.66 12.16Q34.66 14.16 35.15 14.98Q35.64 15.79 37.01 15.79L37.01 15.79ZM52.90 13.92L52.90 13.92L55.73 13.90Q55.70 14.09 55.68 14.59Q55.66 15.10 55.64 15.28Q55.63 15.46 55.58 15.84Q55.54 16.22 55.48 16.40Q55.42 16.58 55.32 16.87L55.32 16.87Q54.89 18.12 52.97 18.84L52.97 18.84Q51.74 19.27 50.41 19.27Q49.08 19.27 48 18.84Q46.92 18.41 46.30 17.74L46.30 17.74Q44.88 16.25 44.88 12.16Q44.88 8.06 46.30 6.58L46.30 6.58Q46.92 5.90 48 5.47Q49.08 5.04 50.40 5.04L50.40 5.04Q52.99 5.04 54.34 6.34Q55.68 7.63 55.68 9.94L55.68 9.94L52.85 9.94Q52.85 8.88 52.32 8.36Q51.79 7.85 50.36 7.85Q48.94 7.85 48.47 8.74Q48 9.62 48 11.40L48 11.40L48 12.65Q48 15.50 49.10 16.15L49.10 16.15Q49.61 16.46 50.42 16.46Q51.24 16.46 51.76 16.31Q52.27 16.15 52.50 15.77Q52.73 15.38 52.80 15.01Q52.87 14.64 52.90 13.92ZM68.59 5.23L68.59 18.94L66.26 18.94L65.54 17.30L61.70 19.08Q60.10 19.08 58.91 17.89Q57.72 16.70 57.72 14.42L57.72 14.42L57.72 5.23L60.84 5.23L60.84 13.75Q60.84 16.03 62.66 16.03L62.66 16.03L65.47 14.52L65.47 5.23L68.59 5.23ZM79.37 5.28L79.37 5.28L78.50 8.35Q78.14 8.21 77.69 8.21L77.69 8.21Q76.49 8.21 74.74 9.24L74.74 9.24L74.74 18.94L71.62 18.94L71.62 5.23L73.94 5.23L74.66 6.43L77.98 5.06Q78.22 5.04 78.62 5.04Q79.03 5.04 79.37 5.28ZM90.89 5.14L90.89 18.94L88.80 18.94L87.84 17.28L84.50 19.08Q81.72 19.08 80.76 17.06L80.76 17.06Q80.28 16.08 80.10 14.94Q79.92 13.80 79.92 12.56Q79.92 11.33 79.94 10.74Q79.97 10.15 80.06 9.37Q80.16 8.59 80.34 8.06Q80.52 7.54 80.86 6.97Q81.19 6.41 81.67 6.07L81.67 6.07Q82.75 5.33 84.48 5.33L84.48 5.33L87.77 5.33L90.89 5.14ZM85.39 15.79L87.77 14.57L87.77 8.14L85.39 8.14Q84.07 8.14 83.56 9.14Q83.04 10.15 83.04 12.16Q83.04 14.16 83.53 14.98Q84.02 15.79 85.39 15.79L85.39 15.79Z" transform="translate(51, 2.993)"></path></svg>