<?xml version="1.0" standalone="no"?>
<svg xmlns="http://www.w3.org/2000/svg" viewBox="0 0 47.36 52.68" width="47.36" height="52.68"><rect fill="#0019ff" width="47.36" height="52.68" x="0" y="0"></rect><path fill="white" fill-rule="nonzero" d="M7.80 28.68L7.80 28.68Q5.64 28.68 3.88 27.60Q2.12 26.52 1.06 24.70Q0 22.88 0 20.64L0 20.64L0 7.96Q0 5.80 1.06 3.98Q2.12 2.16 3.90 1.08Q5.68 0 7.80 0L7.80 0Q10 0 11.78 1.06Q13.56 2.12 14.60 3.92Q15.64 5.72 15.64 7.96L15.64 7.96L15.64 9.80Q15.64 9.96 15.44 9.96L15.44 9.96L10.96 9.96Q10.80 9.96 10.80 9.80L10.80 9.80L10.80 8.28Q10.80 6.76 9.94 5.76Q9.08 4.76 7.80 4.76L7.80 4.76Q6.64 4.76 5.74 5.72Q4.84 6.68 4.84 7.96L4.84 7.96L4.84 20.64Q4.84 21.96 5.72 22.90Q6.60 23.84 7.80 23.84L7.80 23.84Q9.08 23.84 9.94 22.92Q10.80 22 10.80 20.64L10.80 20.64L10.80 18.68L8 18.68Q7.80 18.68 7.80 18.48L7.80 18.48L7.80 14Q7.80 13.80 8 13.80L8 13.80L15.48 13.80Q15.64 13.80 15.64 14L15.64 14L15.64 20.64Q15.64 22.88 14.58 24.70Q13.52 26.52 11.76 27.60Q10 28.68 7.80 28.68ZM23.20 28.28L18.68 28.28Q18.48 28.28 18.48 28.08L18.48 28.08L18.52 0.60Q18.52 0.44 18.68 0.44L18.68 0.44L23.16 0.44Q23.32 0.44 23.32 0.60L23.32 0.60L23.36 28.08Q23.36 28.28 23.20 28.28L23.20 28.28Z" transform="translate(12 12) scale(1)"></path></svg>